<svg width="40" height="40" viewBox="0 0 40 40" fill="none" xmlns="http://www.w3.org/2000/svg">
<path d="M40 20C40 31.0456 31.0456 40 20 40C8.95437 40 0 31.0456 0 20C0 20.0047 20 0.00226562 20 0C31.0456 0 40 8.95437 40 20Z" fill="#0052B4"/>
<path d="M20 0C19.9989 0 19.9977 7.8125e-05 19.9966 7.8125e-05L20 0Z" fill="#F0F0F0"/>
<path d="M19.947 20.0005H20.0005C20.0005 19.9824 20.0005 19.965 20.0005 19.947C19.9827 19.9649 19.9649 19.9827 19.947 20.0005Z" fill="#F0F0F0"/>
<path d="M20 10.434C20 6.91482 20 4.60961 20 0L19.9966 7.8125e-05C8.95247 0.001875 0 8.95451 0 19.9991H10.4348V14.1232L16.3107 19.9991H19.9466C19.9645 19.9813 19.9823 19.9635 20.0001 19.9456C20.0001 18.5982 20.0001 17.3959 20.0001 16.31L14.1241 10.434H20Z" fill="#F0F0F0"/>
<path d="M10.1191 2.60938C6.99102 4.39055 4.39055 6.99102 2.60938 10.1191V20.0007H7.8268V7.82688L20.0007 7.8268C20.0007 6.18125 20.0007 4.61359 20.0007 2.60938H10.1191Z" fill="#D80027"/>
<path d="M20 17.541L12.8943 10.4354H10.4348L19.9999 20.0005C19.9999 20.0005 20 18.3048 20 17.541Z" fill="#D80027"/>
<path d="M12.0612 23.4773L13.1588 25.7724L15.6375 25.1995L14.5275 27.4888L16.5208 29.0695L14.039 29.6288L14.0459 32.1729L12.0612 30.5813L10.0765 32.1729L10.0834 29.6288L7.60156 29.0695L9.59492 27.4888L8.48477 25.1995L10.9636 25.7724L12.0612 23.4773Z" fill="#F0F0F0"/>
<path d="M29.9426 27.8266L30.4914 28.9742L31.7308 28.6877L31.1757 29.8323L32.1724 30.6227L30.9315 30.9024L30.9349 32.1744L29.9426 31.3785L28.9502 32.1744L28.9537 30.9024L27.7128 30.6227L28.7094 29.8323L28.1544 28.6877L29.3937 28.9742L29.9426 27.8266Z" fill="#F0F0F0"/>
<path d="M24.8384 15.651L25.3871 16.7987L26.6265 16.5121L26.0715 17.6567L27.0681 18.4471L25.8273 18.7268L25.8306 19.9989L24.8384 19.203L23.846 19.9989L23.8494 18.7268L22.6085 18.4471L23.6052 17.6567L23.0502 16.5121L24.2896 16.7987L24.8384 15.651Z" fill="#F0F0F0"/>
<path d="M29.9426 8.69531L30.4914 9.84297L31.7308 9.55648L31.1758 10.7011L32.1723 11.4914L30.9315 11.7712L30.9349 13.0432L29.9426 12.2473L28.9502 13.0432L28.9537 11.7712L27.7128 11.4914L28.7094 10.7011L28.1544 9.55648L29.3937 9.84297L29.9426 8.69531Z" fill="#F0F0F0"/>
<path d="M34.4031 13.9126L34.9518 15.0602L36.1912 14.7736L35.6362 15.9183L36.6329 16.7086L35.3919 16.9884L35.3954 18.2604L34.4031 17.4646L33.4107 18.2604L33.4141 16.9884L32.1732 16.7086L33.1699 15.9183L32.6149 14.7736L33.8542 15.0602L34.4031 13.9126Z" fill="#F0F0F0"/>
<path d="M31.2147 20.0003L31.6464 21.3289H33.0434L31.9132 22.1501L32.345 23.4786L31.2147 22.6575L30.0846 23.4786L30.5162 22.1501L29.3861 21.3289H30.783L31.2147 20.0003Z" fill="#F0F0F0"/>
</svg>
