<svg width="40" height="40" viewBox="0 0 40 40" fill="none" xmlns="http://www.w3.org/2000/svg">
<path d="M20 40C31.0457 40 40 31.0457 40 20C40 8.9543 31.0457 0 20 0C8.9543 0 0 8.9543 0 20C0 31.0457 8.9543 40 20 40Z" fill="#D80027"/>
<path d="M10.9453 12.1715L12.6719 17.484H18.2578L13.7422 20.7731L15.4688 26.0856L10.9453 22.8043L6.42188 26.0856L8.15625 20.7731L3.63281 17.484H9.21875L10.9453 12.1715Z" fill="#FFDA44"/>
<path d="M23.7116 30.9766L22.3913 29.3516L20.4382 30.1094L21.571 28.3516L20.2507 26.7188L22.2742 27.2578L23.4148 25.5L23.5241 27.5938L25.5554 28.1328L23.5945 28.8828L23.7116 30.9766Z" fill="#FFDA44"/>
<path d="M26.3367 26.2109L26.9617 24.2109L25.2507 23L27.3445 22.9688L27.9617 20.9688L28.6414 22.9531L30.7351 22.9297L29.0554 24.1797L29.7273 26.1641L28.0164 24.9531L26.3367 26.2109Z" fill="#FFDA44"/>
<path d="M29.8743 14.679L28.9524 16.5618L30.4524 18.0227L28.3821 17.7259L27.4602 19.6009L27.1008 17.5384L25.0227 17.2415L26.8821 16.2649L26.5227 14.1946L28.0227 15.6555L29.8743 14.679Z" fill="#FFDA44"/>
<path d="M23.7653 8.97656L23.609 11.0625L25.5543 11.8516L23.5153 12.3516L23.3668 14.4453L22.2653 12.6641L20.2262 13.1641L21.5778 11.5625L20.4684 9.78906L22.4137 10.5781L23.7653 8.97656Z" fill="#FFDA44"/>
</svg>
